<?xml version="1.0" encoding="UTF-8" standalone="no"?>
<!-- Created with Inkscape (http://www.inkscape.org/) -->

<svg
   width="210mm"
   height="297mm"
   viewBox="0 0 210 297"
   version="1.1"
   id="svg5"
   inkscape:version="1.1.2 (08b2f3d93c, 2022-04-05)"
   sodipodi:docname="drawing333.svg"
   xmlns:inkscape="http://www.inkscape.org/namespaces/inkscape"
   xmlns:sodipodi="http://sodipodi.sourceforge.net/DTD/sodipodi-0.dtd"
   xmlns:xlink="http://www.w3.org/1999/xlink"
   xmlns="http://www.w3.org/2000/svg"
   xmlns:svg="http://www.w3.org/2000/svg">
  <sodipodi:namedview
     id="namedview7"
     pagecolor="#ffffff"
     bordercolor="#666666"
     borderopacity="1.0"
     inkscape:pageshadow="2"
     inkscape:pageopacity="0.0"
     inkscape:pagecheckerboard="0"
     inkscape:document-units="mm"
     showgrid="false"
     inkscape:zoom="0.44055165"
     inkscape:cx="457.3811"
     inkscape:cy="184.99533"
     inkscape:window-width="1848"
     inkscape:window-height="1016"
     inkscape:window-x="72"
     inkscape:window-y="27"
     inkscape:window-maximized="1"
     inkscape:current-layer="layer1" />
  <defs
     id="defs2">
    <linearGradient
       inkscape:collect="always"
       id="linearGradient1371">
      <stop
         style="stop-color:#000000;stop-opacity:1;"
         offset="0"
         id="stop1367" />
      <stop
         style="stop-color:#000000;stop-opacity:0;"
         offset="1"
         id="stop1369" />
    </linearGradient>
    <linearGradient
       inkscape:collect="always"
       xlink:href="#linearGradient1371"
       id="linearGradient1373"
       x1="165.42606"
       y1="120.5703"
       x2="-25.630278"
       y2="91.624077"
       gradientUnits="userSpaceOnUse"
       gradientTransform="translate(11.073464,10.30847)" />
  </defs>
  <g
     inkscape:label="Layer 1"
     inkscape:groupmode="layer"
     id="layer1">
    <path
       style="fill:url(#linearGradient1373);fill-opacity:1;stroke:none;stroke-width:0.264583px;stroke-linecap:butt;stroke-linejoin:miter;stroke-opacity:1"
       d="m 117.19203,172.43032 c 6.66886,-6.81373 19.3471,-3.04698 27.43123,-8.10144 4.80858,-3.00648 8.2665,-7.88418 11.47735,-12.55878 3.81294,-5.55117 7.41273,-11.53617 9.02877,-18.07394 1.31285,-5.3112 -1.1097,-11.13688 0.35075,-16.4094 3.08493,-11.13724 12.80232,-19.415469 17.19855,-30.103225 2.06584,-5.022297 4.12065,-10.308399 4.21051,-15.738231 0.0906,-5.475948 -2.92817,-10.584377 -3.71877,-16.00371 -0.7603,-5.211622 -0.96967,-15.770583 -0.96967,-15.770583 L 142.71585,18.964858 81.882123,30.268996 -9.782936,24.30826 64.091957,62.183742 50.098654,89.787553 c 0,0 -9.882044,3.669011 -12.082773,16.428967 -2.761784,16.01297 17.118413,20.95097 17.118413,20.95097 l -55.32136602,3.58893 c 0,0 29.82444702,42.70219 51.11810002,56.58173 37.955614,24.74008 85.352502,54.60911 129.053712,42.65487 16.11741,-4.40883 32.96177,-37.76773 32.96177,-37.76773 0,0 -14.10119,8.73671 -21.95859,8.58371 -5.05513,-0.0984 -9.01039,-4.78733 -13.90155,-6.06818 -14.48953,-3.79438 -30.04876,-1.43588 -44.70688,-4.51538 -6.31192,-1.32606 -15.33768,-0.29392 -18.40609,-5.96699 -1.94392,-3.59405 0.36055,-8.90796 3.21863,-11.82813 z"
       id="path1267"
       sodipodi:nodetypes="ssssssssccccccsccsscsssss" />
    <path
       style="fill:#000000;stroke:#000000;stroke-width:5;stroke-linecap:round;stroke-miterlimit:4;stroke-dasharray:none;stroke-opacity:1;paint-order:stroke fill markers"
       id="path871"
       d="m 382.63481,-16.940413 c 3.38484,-1.16341 6.83964,-2.11236 10.24863,-3.20484 1.12396,-0.36947 2.24856,-0.73703 3.3719,-1.10839 2.4686,-0.81609 4.94004,-1.62369 7.40565,-2.44879 1.98133,-0.66305 4.68426,-1.55906 6.62604,-2.38826 0.98,-0.41848 1.92419,-0.91632 2.88628,-1.37448 2.035,-1.64907 4.22527,-3.12314 6.10501,-4.9472 1.24759,-1.21064 2.18587,-2.70512 3.22053,-4.10212 3.47285,-4.6891 6.45645,-9.692219 9.25671,-14.801849 1.40334,-2.99874 3.15822,-6.14798 3.17887,-9.56511 0.003,-0.53749 -0.082,-1.07187 -0.12305,-1.607811 -0.39884,-3.2607 -1.52833,-6.47879 -1.19754,-9.80371 0.0744,-0.74735 0.27756,-1.47621 0.41634,-2.21432 0.48133,-1.00326 0.89821,-2.04007 1.44401,-3.00977 1.77054,-3.1456 5.00579,-7.938585 6.87832,-10.841299 3.03166,-4.699566 4.5403,-7.009609 7.28148,-11.799748 0.94262,-1.6472 1.82187,-3.32988 2.7328,-4.99481 1.77546,-3.55611 3.55478,-7.20062 4.34565,-11.13125 0.42741,-2.12421 0.55263,-4.46582 0.50502,-6.62731 -0.0221,-1.00497 -0.14049,-2.00551 -0.21074,-3.00826 -0.39185,-2.08144 -0.41761,-2.86444 -1.21269,-4.77335 -0.25025,-0.60082 -0.60114,-1.15459 -0.9017,-1.73188 0,0 -3.16164,1.81351 -3.16164,1.81351 v 0 c 0.30879,0.55044 0.66725,1.07583 0.92638,1.65132 0.83283,1.84955 0.86371,2.59347 1.28965,4.62888 0.21928,2.6766 0.38759,3.45839 0.16516,6.20774 -0.40572,5.01508 -2.24927,9.70636 -4.44748,14.18414 -0.85701,1.63665 -1.67437,3.29469 -2.57105,4.909941 -2.49108,4.487336 -4.34523,7.41254 -7.19397,11.745081 -0.19782,0.300855 -6.98798,10.328015 -7.48755,11.155495 -0.61447,1.0178 -1.06584,2.12555 -1.59875,3.18833 -0.13424,0.75906 -0.33254,1.50954 -0.4027,2.27717 -0.30504,3.33769 0.76646,6.59054 1.1093,9.876741 0.0238,0.52321 0.081,1.04596 0.0714,1.56963 -0.0602,3.29343 -1.58741,6.35489 -2.91468,9.28361 -2.64421,5.0732 -5.51057,10.032579 -8.96341,14.609519 -1.06234,1.40819 -2.34539,2.64878 -3.33327,4.11017 -0.31969,0.47292 -0.36204,1.08276 -0.54306,1.62414 -0.96591,0.47282 -1.91262,0.98708 -2.89772,1.41848 -1.9897,0.87135 -4.64119,1.76478 -6.68172,2.45311 -3.54569,1.19608 -7.11451,2.32301 -10.67229,3.4822 -3.27102,0.99344 -6.57062,1.88704 -9.84285,2.87203 0,0 -3.10724,2.42332 -3.10724,2.42332 z" />
    <path
       style="fill:#000000;stroke:#000000;stroke-width:2;stroke-linecap:round;stroke-miterlimit:4;stroke-dasharray:none;stroke-opacity:1;paint-order:stroke fill markers"
       id="path1226"
       d="m 381.22199,56.492166 c -0.33034,1.05433 -0.28197,2.24221 0.11493,3.27803 0.0938,0.24475 0.23377,0.46919 0.35067,0.70378 0.21126,0.22332 0.39005,0.4826 0.63377,0.66997 1.26548,0.9729 3.01352,1.38106 4.50446,1.81526 1.84833,0.53827 3.19401,0.87456 5.07337,1.36513 6.03859,1.43736 12.23584,2.09009 18.44082,1.98522 1.01989,-0.0172 2.03817,-0.0885 3.05725,-0.13276 4.68803,-0.31235 9.27098,-1.37216 13.84469,-2.38204 3.80418,-0.9047 7.64743,-1.60538 11.53995,-1.9761 6.44175,-0.24461 12.87908,0.52877 19.25957,1.33158 4.95597,0.75721 2.48252,0.34493 7.42031,1.23702 0,0 2.99606,-1.39304 2.99606,-1.39304 v 0 c -4.94752,-0.90427 -2.46641,-0.48911 -7.44334,-1.24525 -6.2834,-0.82056 -12.61347,-1.62723 -18.96062,-1.55994 -3.91906,0.32559 -7.78358,1.05804 -11.60984,1.95929 -4.62091,1.01952 -9.24193,2.12473 -13.97108,2.51135 -1.03729,0.0595 -2.07335,0.14688 -3.11187,0.17859 -6.15371,0.18793 -12.3184,-0.39682 -18.28068,-1.96214 -2.24673,-0.60901 -2.78326,-0.73074 -4.9457,-1.40438 -1.39317,-0.43399 -3.03073,-0.84731 -4.2376,-1.72853 -0.21716,-0.15856 -0.38172,-0.3788 -0.57258,-0.5682 -0.6284,-1.21642 -0.8536,-2.37352 -0.27351,-3.66195 0,0 -3.82903,0.97911 -3.82903,0.97911 z" />
    <circle
       id="path3907"
       style="fill:#0b0b0b;stroke:#000000;stroke-width:0.264583"
       cx="261.90036"
       cy="217.19337"
       r="0.38170999" />
    <path
       style="fill:#0b0b0b;fill-opacity:1;stroke:#000000;stroke-width:2;stroke-linecap:round;stroke-miterlimit:4;stroke-dasharray:none;stroke-opacity:1;paint-order:stroke fill markers"
       id="path4032"
       d="m 287.87697,-104.06598 c 1.98297,-0.28228 3.93908,0.26223 5.829,0.80063 2.97123,0.92978 5.78753,2.26731 8.58402,3.61909 3.00873,1.49511 5.89318,3.22294 8.74571,4.99345 3.31253,2.06027 6.69548,4.00441 9.98698,6.09833 2.41209,1.60512 4.77875,3.28061 7.409,4.51272 2.36843,1.09677 3.68682,0.96287 6.15555,0.34953 2.36336,-0.75517 4.70372,-1.57577 7.07871,-2.29553 2.11858,-0.63774 4.27558,-1.11137 6.46818,-1.39918 1.55761,-0.18058 3.12681,-0.20582 4.69301,-0.213 1.27163,-0.005 2.54321,0.006 3.81485,0.004 1.81462,-0.0139 3.62931,-0.006 5.44396,-0.008 1.90499,0.0241 3.80691,-0.13095 5.70335,-0.29391 1.8131,-0.16494 3.58828,-0.54354 5.2503,-1.2901 1.34361,-0.77667 3.3695,-1.68251 4.71399,-2.8759 1.04816,-0.93037 1.91303,-2.05553 2.77813,-3.15039 1.28874,-1.64137 2.63242,-3.23947 4.01157,-4.80542 1.31579,-1.47162 2.70227,-2.87756 4.08985,-4.28093 1.31912,-1.35254 2.68565,-2.65848 4.12201,-3.88598 1.19345,-0.97258 2.50297,-1.77758 3.82014,-2.56694 1.2313,-0.78296 6.5034,-3.84905 0.84262,-0.57057 1.25687,-0.76011 2.6287,-1.26381 4.05993,-1.56799 1.79368,-0.33352 2.48772,-0.96533 4.28971,-2.55634 0.1151,-0.10162 -0.32109,-0.51569 -0.64,-0.84896 -1.22804,-1.0469 -2.71947,-1.62577 -4.26358,-2.01699 -1.885,-0.28624 -3.7445,-0.67527 -5.59008,-1.15149 -1.20997,-0.31617 -2.41329,-0.65656 -3.60647,-1.03105 -0.90992,-0.33809 -1.84503,-0.55612 -2.8084,-0.66094 -1.88854,-0.0768 -3.73852,-0.46803 -5.58037,-0.86314 -2.42549,-0.53701 -4.82145,-1.19655 -7.17801,-1.98136 -1.59607,-0.59702 -3.24623,-0.9719 -4.93708,-1.151 -1.63475,-0.17519 -3.22807,0.15954 -4.80986,0.52629 -1.87272,0.46723 -3.79526,0.61909 -5.71613,0.71613 -2.20958,0.0776 -4.42093,0.0712 -6.63153,0.0781 -2.41212,-0.0418 -4.82215,0.0626 -7.2325,0.13443 -1.91656,0.0595 -3.83415,0.0778 -5.75155,0.0804 -1.19152,-0.003 -2.383,-10e-4 -3.57452,-0.006 -0.87761,-10e-4 -1.7552,-0.005 -2.63281,-0.009 -0.71287,-0.0255 -1.42075,0.0648 -2.12115,0.18738 -0.97396,0.22452 -1.92661,0.53469 -2.86788,0.8688 -0.77765,0.27864 -1.54433,0.58542 -2.30113,0.91621 -0.61421,0.27184 -1.21552,0.57148 -1.81704,0.87001 -0.95306,0.45868 -1.9468,0.82674 -2.93082,1.21254 -0.91942,0.36496 -1.84494,0.71402 -2.77032,1.06346 -0.98628,0.34533 -1.93515,0.78357 -2.87939,1.22844 -2.1021,1.05613 -4.27134,1.95761 -6.47162,2.78547 -2.84665,1.0972 -5.76357,1.95335 -8.76439,2.49539 -2.31879,0.32625 -4.64832,0.58013 -6.98362,0.75258 -1.54727,0.1042 -3.0988,0.11531 -4.64892,0.12683 -1.44273,-0.0174 -2.88437,-0.0146 -4.32134,0.12521 -0.18184,0.0295 -0.36369,0.059 -0.54553,0.0886 0,0 -3.11819,2.35656 -3.11819,2.35656 v 0 c 0.17824,-0.0392 0.35649,-0.0783 0.53474,-0.11751 1.43714,-0.18558 2.88614,-0.20407 4.33376,-0.18729 1.5543,0.004 3.10978,0.0115 4.66125,-0.10001 2.37119,-0.19343 4.73313,-0.48642 7.09265,-0.78786 3.01146,-0.51875 5.94161,-1.3411 8.79766,-2.43504 2.17114,-0.79789 4.31929,-1.65365 6.39362,-2.68188 0.92683,-0.44132 1.85903,-0.88153 2.8265,-1.22693 0.9335,-0.35332 1.8667,-0.70753 2.79467,-1.07524 0.97246,-0.38685 1.95395,-0.75132 2.91784,-1.159 0.60125,-0.30114 1.20226,-0.6031 1.81188,-0.88706 0.75442,-0.34496 1.51898,-0.66572 2.29891,-0.94902 0.92324,-0.34935 1.86226,-0.65039 2.8148,-0.90982 0.68277,-0.13825 1.3757,-0.25752 2.07487,-0.24457 0.88512,-0.004 1.77024,-0.007 2.65537,-0.007 1.2032,-0.004 2.40642,2e-4 3.60953,-0.0157 1.93597,-0.0218 3.8718,-0.0518 5.80711,-0.10873 2.41163,-0.0826 4.8231,-0.19389 7.23684,-0.15279 2.20467,0.008 4.41014,0.0213 6.61412,-0.0445 1.92697,-0.0723 3.85747,-0.20334 5.74094,-0.64548 1.54866,-0.36626 3.10563,-0.75032 4.71214,-0.61012 1.68868,0.14103 3.34606,0.4624 4.94482,1.03999 2.37146,0.78181 4.78085,1.44233 7.21418,2.00322 1.81742,0.41824 3.64155,0.86095 5.51008,0.96892 0.94573,0.0845 1.86945,0.25973 2.76088,0.59739 1.21473,0.37474 2.43773,0.71954 3.67646,1.00708 1.84419,0.46842 3.69356,0.91275 5.58281,1.16241 1.48226,0.34315 2.91814,0.863 4.09555,1.86201 0.10828,0.11365 0.23034,0.21562 0.32484,0.34097 0.0488,0.0647 0.0267,0.25759 0.0994,0.22178 1.13621,-0.55987 2.19241,-1.26936 3.29432,-1.89405 0.0851,-0.0482 -0.79294,0.46692 -0.90838,0.33624 -1.46675,0.28786 -2.89342,0.7452 -4.18762,1.51029 -2.50085,1.44365 -5.00286,2.88188 -7.46347,4.39298 -1.3077,0.79165 -2.58974,1.62864 -3.76129,2.61537 -1.4168,1.24667 -2.78067,2.55144 -4.09428,3.90663 -1.3884,1.40633 -2.77083,2.82 -4.07951,4.30162 -1.36841,1.57212 -2.70443,3.1726 -3.98866,4.81444 -0.87672,1.08562 -1.7579,2.19408 -2.84916,3.07684 -0.22765,0.18415 -0.97366,0.64621 -0.71256,0.51369 0.88785,-0.45061 1.73295,-0.9809 2.59943,-1.47135 -1.61841,0.82231 -3.37975,1.23316 -5.18372,1.41243 -1.88774,0.17413 -3.78269,0.33122 -5.67971,0.319 -1.80376,-0.002 -3.60759,0.005 -5.41127,-0.0151 -1.26968,-0.008 -2.53935,-0.0118 -3.80905,-0.0123 -1.58927,0.0143 -3.18017,0.0499 -4.76291,0.20599 -2.21757,0.28229 -4.40123,0.74096 -6.5452,1.37953 -2.37489,0.70557 -4.71645,1.50909 -7.06303,2.3023 -1.03651,0.27694 -2.12026,0.61802 -3.20848,0.59305 -0.97266,-0.0223 -1.89706,-0.40305 -2.792,-0.73675 -2.66488,-1.16358 -5.0525,-2.81304 -7.47341,-4.40819 -3.30042,-2.07777 -6.70411,-3.98725 -9.97978,-6.10549 -2.84746,-1.79125 -5.73812,-3.52412 -8.74217,-5.04182 -2.7949,-1.38258 -5.63653,-2.68499 -8.59313,-3.68754 -1.87831,-0.58543 -3.78849,-1.14346 -5.77906,-1.05429 0,0 -3.16047,2.37866 -3.16047,2.37866 z" />
    <path
       style="fill:#000000;fill-opacity:1;stroke:#000000;stroke-width:0;stroke-linecap:round;stroke-miterlimit:4;stroke-dasharray:none;stroke-opacity:1;paint-order:stroke fill markers"
       d="m 83.797529,117.4736 c -0.960927,-0.34279 -3.552753,-1.76254 -5.759616,-3.155 C 61.604065,103.94937 54.025959,99.822364 48.163939,98.049378 46.675532,97.599205 45.291533,97.092959 45.088388,96.924391 44.885244,96.755822 46.154366,96.4845 47.90866,96.321455 c 3.593579,-0.333986 9.753328,-2.010365 14.036194,-3.819951 20.542429,-8.679547 16.919387,-7.844146 36.73173,-8.469582 9.249946,-0.292002 18.269526,-0.558691 20.043496,-0.592643 2.36327,-0.04523 5.01125,0.393531 9.9066,1.641494 3.67465,0.936776 9.58405,2.352704 13.13199,3.146509 3.54793,0.793803 6.83294,1.58254 7.30004,1.752746 0.66146,0.24103 -0.094,0.866711 -3.41631,2.829332 -4.87687,2.880977 -8.55683,6.064975 -13.93769,12.05928 -2.07305,2.30938 -4.51431,5.02852 -5.425,6.04252 -2.06989,2.30468 -3.42597,2.53826 -15.00664,2.58481 -9.35723,0.0376 -12.399874,0.48523 -20.351944,2.99406 -2.871671,0.906 -5.256152,1.63817 -5.298842,1.62704 -0.04269,-0.0111 -0.86383,-0.30068 -1.824755,-0.64347 z"
       id="path7231" />
    <path
       style="fill:#ffffff;fill-opacity:1;stroke:#000000;stroke-width:0;stroke-linecap:round;stroke-miterlimit:4;stroke-dasharray:none;stroke-opacity:1;paint-order:stroke fill markers"
       id="path5465"
       d="m 97.779362,96.014764 c -0.0396,0.0032 -0.07908,0.01003 -0.118805,0.0095 -0.05578,-7.69e-4 -0.111135,-0.01008 -0.166836,-0.01312 -0.271757,-0.01482 -0.552035,-0.02214 -0.818465,0.04536 -0.107541,0.02724 -0.209548,0.07293 -0.314321,0.109398 -0.71755,0.454525 -2.28688,0.941431 -2.843921,1.9371 -0.07204,0.128767 -0.162098,0.344513 -0.126053,0.502234 0.02078,0.0909 0.08829,0.164273 0.132441,0.24641 0.123648,0.05508 0.239727,0.132012 0.370945,0.165248 0.346444,0.08775 0.81632,0.04601 1.153443,0.01819 0.378098,-0.03121 0.940492,-0.105527 1.318463,-0.175383 0.184433,-0.03409 0.366515,-0.07986 0.54977,-0.119793 0.375939,-0.09887 0.75679,-0.21162 1.094528,-0.410314 1.174796,-0.691143 1.993879,-0.901141 2.719339,-1.775459 0.0857,-0.137036 0.25507,-0.313476 0.21211,-0.493972 -0.009,-0.03873 -0.0267,-0.07501 -0.04,-0.112517 -0.13897,-0.378757 -0.21039,-0.787258 -0.19283,-1.190659 -0.14829,-0.101439 0.20161,-0.129357 0.15063,-0.09792 -0.74263,0.458062 -1.529755,0.843801 -2.256603,1.326525 -0.05366,0.03564 0.127154,0.0246 0.187247,0.0478 0.219366,0.08471 0.362361,0.184422 0.564586,0.30672 0.267099,0.194228 0.365762,0.244078 0.589836,0.502557 0.211654,0.244152 0.361674,0.502544 0.518684,0.783668 0.27597,0.494114 0.25514,0.479414 0.48591,0.999011 0.1823,0.430727 0.34224,0.871366 0.47742,1.319174 0.0644,0.213458 0.12029,0.415858 0.12515,0.638358 -0.0129,0.0139 -0.021,0.0485 -0.0387,0.0416 -0.0379,-0.0146 -0.11822,-0.0677 -0.0835,-0.0887 0.79941,-0.43657 1.59883,-0.873139 2.39825,-1.30971 -0.008,0.003 -0.0148,0.01082 -0.0227,0.0089 -0.0216,-0.0052 -0.0675,-0.04837 -0.0808,-0.05977 -0.0773,-0.06598 -0.14078,-0.142168 -0.18085,-0.235477 -0.007,-0.01326 -0.044,-0.122888 -0.0355,-0.132398 0.002,-0.0021 0.0479,0.0091 0.0635,0.01263 0.89673,0.313176 0.0771,0.0084 -2.21733,1.352335 -0.0308,0.0181 0.0622,-0.0358 0.0955,-0.0485 0.0391,-0.0148 0.0799,-0.0246 0.12073,-0.0337 0.13393,-0.0299 0.15787,-0.0264 0.29568,-0.0363 0.23559,-0.0122 0.47187,-0.002 0.70664,0.0192 0.0717,0.003 0.1258,0.008 0.17864,0.0573 0.79283,-0.482986 1.58852,-0.961311 2.3785,-1.448948 0.009,-0.0057 0.009,-0.01998 0.0153,-0.02868 0.009,-0.01251 0.0621,-0.0641 0.0697,-0.06974 0.0509,-0.03822 0.10608,-0.0706 0.1574,-0.10831 0.18284,-0.148869 0.3811,-0.28656 0.53252,-0.469977 0.10409,-0.126072 0.11835,-0.174756 0.19052,-0.319003 0.0212,-0.05478 0.0517,-0.106829 0.0637,-0.164346 0.10732,-0.515415 -0.38493,-0.889616 -0.70619,-1.201658 -0.25519,-0.245781 -0.50879,-0.495076 -0.7342,-0.769088 -0.0631,-0.07665 -0.18516,-0.230941 -0.22994,-0.334004 -0.01,-0.02264 -0.007,-0.0489 -0.0102,-0.07334 -0.77256,0.486712 -1.56329,0.9457 -2.31767,1.460138 -0.0319,0.02173 0.073,0.02711 0.10487,0.04885 0.0529,0.03616 0.0994,0.08108 0.14747,0.123498 0.18584,0.163976 0.35823,0.342451 0.53574,0.515237 0.24616,0.260204 0.54886,0.444842 0.86403,0.607745 0.23253,0.101056 0.45397,0.224592 0.67525,0.347698 0.18306,0.108843 0.37363,0.185689 0.58244,0.225833 0.14662,0.02839 0.29797,0.02272 0.44318,0.05745 4.46057,-1.007881 1.47995,-0.916257 2.77893,-1.745754 0.90272,-0.408923 -0.0318,0.0092 -2.03875,1.19683 -0.0465,0.02754 0.0985,-0.04553 0.15025,-0.06124 0.15762,-0.04785 0.31766,-0.04476 0.47993,-0.04077 0.25425,0.01552 0.4887,0.107145 0.71651,0.213389 0.13527,0.06854 0.2366,0.128746 0.28173,0.278045 0.0356,0.257965 -0.079,0.49315 -0.21755,0.702026 -0.0907,0.109696 -0.19461,0.213572 -0.31856,0.286121 -0.0443,0.02596 -0.18376,0.09175 -0.1395,0.06563 2.11232,-1.246227 2.91412,-1.544437 1.949,-1.171716 -0.30956,0.07879 -0.63091,0.07876 -0.94306,0.01774 -0.0989,-0.03415 -0.25459,-0.04428 -0.31482,-0.145271 -0.0144,-0.02421 -0.0235,-0.05127 -0.0352,-0.07691 -0.0634,-0.19406 -0.0719,-0.401268 0.0272,-0.583484 -0.1256,-7.7e-4 0.23741,-0.132112 0.17852,-0.09713 -2.35392,1.398135 -2.58487,2.241788 -2.33422,1.348365 0.0132,-0.06194 0.0679,-0.04227 0.11698,-0.04469 0.0445,-0.0022 0.12245,-0.02192 0.16023,-0.03023 0.44136,-0.05329 0.86238,-0.181783 1.26589,-0.364714 0.61328,-0.800292 2.22511,-0.889183 2.85556,-1.847536 0.0829,-0.13894 0.16527,-0.27687 0.22781,-0.426316 0.0478,-0.113605 0.1113,-0.219489 0.14265,-0.339172 0.0271,-0.13788 0.0149,-0.25482 -0.0387,-0.384381 -0.0233,-0.03011 -0.0434,-0.06303 -0.0699,-0.09032 -0.65428,-0.672485 -2.16254,1.076427 -2.51567,1.349547 -0.077,0.05956 0.1497,0.125215 0.23131,0.178275 0.0887,0.05768 0.18546,0.101974 0.27819,0.152961 0.48271,0.301582 0.94942,0.698273 1.1399,1.255234 0.031,0.09057 0.0421,0.186764 0.0631,0.280147 0.002,0.09066 0.0144,0.18157 0.007,0.271995 -0.0398,0.510331 -0.33926,0.84286 -0.68234,1.187009 -0.30764,0.289685 -0.66369,0.518565 -0.99496,0.778645 -0.13962,0.10579 -0.10269,0.16894 -0.0464,0.30913 0.77756,-0.49889 1.5547,-0.998419 2.33267,-1.496668 0.006,-0.0037 -0.009,0.01123 -0.0159,0.01287 -0.008,0.0021 -0.0171,-9.09e-4 -0.0255,-0.0026 -0.0356,-0.0068 -0.0651,-0.01526 -0.10189,-0.01504 -0.0488,-0.01532 -0.13339,-0.04448 -0.17753,-0.04044 -0.2969,0.02719 -0.82657,0.15737 -1.0893,0.209178 -0.59707,0.117741 -0.76614,0.138505 -1.3588,0.231475 -0.73913,0.138007 -1.51184,0.146618 -2.22994,0.384985 1.26454,0.52441 -2.25554,0.62833 -2.46282,1.58173 -0.0196,0.09 -0.004,0.2607 0.0317,0.34582 0.075,0.17759 0.14714,0.21167 0.28958,0.33886 0.0839,0.042 0.16238,0.0975 0.25175,0.12615 0.29663,0.0953 0.55648,0.088 0.86838,0.0755 0.47497,-0.019 0.94653,-0.0957 1.41607,-0.16414 0.24366,-0.0331 0.48543,-0.081 0.73003,-0.10756 0.0284,-0.003 0.0571,-0.004 0.0856,-0.006 0.0113,-6.9e-4 0.0368,0.009 0.0338,-10e-4 -0.006,-0.0225 -0.0322,-0.0339 -0.0482,-0.0508 -0.60653,-1.00635 -0.2193,-0.18899 2.20675,-1.59441 0.0222,-0.0129 -0.0439,0.027 -0.0674,0.0372 0,0 -2.1943,1.68478 -2.1943,1.68478 v 0 c 1.01841,-0.14191 3.01807,-0.63946 2.38654,-1.65266 -0.0243,-0.0213 -0.0423,-0.0533 -0.0728,-0.064 -0.0255,-0.009 -0.20804,0.0413 -0.21876,0.0441 -0.29061,0.078 -0.57864,0.16626 -0.8736,0.22755 -0.61932,0.12997 -1.45113,0.3299 -2.07196,0.13484 -0.064,-0.0201 -0.12129,-0.0572 -0.18194,-0.0857 -0.0908,-0.0803 -0.1883,-0.15246 -0.15066,-0.29043 0.0271,-0.0993 0.1477,-0.16542 0.12402,-0.15228 -0.718,0.3985 -1.42815,0.81098 -2.14223,1.21646 0.065,-0.0405 0.12595,-0.0885 0.19512,-0.12137 0.16534,-0.0787 0.47987,-0.16616 0.64439,-0.20855 0.53582,-0.13806 1.08122,-0.23652 1.62644,-0.32848 0.52582,-0.0839 0.77238,-0.13047 1.2976,-0.18656 0.16523,-0.0177 0.33121,-0.0273 0.49688,-0.0401 0.0834,-0.006 0.16664,-0.0152 0.25021,-0.0178 0.049,-0.001 0.0726,0.008 0.11578,0.0214 0.0607,0.0374 0.0883,0.0282 0.13572,0.0547 0.0119,0.007 0.0217,0.0307 0.0334,0.0236 0.79511,-0.48749 1.57699,-0.99623 2.36548,-1.494349 0.0339,0.09613 0.0474,0.130832 0.13031,0.04914 0.28935,-0.243435 0.58824,-0.477809 0.84306,-0.758907 0.0653,-0.07758 0.13487,-0.151703 0.19581,-0.232728 0.25318,-0.336665 0.41533,-0.721059 0.40312,-1.149368 -0.003,-0.103384 -0.0277,-0.204984 -0.0416,-0.307478 -0.0944,-0.294565 -0.0939,-0.35524 -0.26297,-0.62368 -0.26454,-0.419979 -0.64415,-0.746736 -1.01599,-1.06707 -0.064,-0.0633 -0.12885,-0.125828 -0.19212,-0.1899 -0.0117,-0.01189 -0.0183,-0.04613 -0.0328,-0.03791 -5.2308,2.955476 -3.08832,1.695013 -2.28202,1.3512 0.0133,0.07321 -0.025,0.152538 -0.052,0.218998 -0.0475,0.09971 -0.0879,0.202503 -0.13699,0.301456 -0.0727,0.129191 -0.14806,0.258683 -0.24449,0.371857 -0.0871,0.09242 -0.1787,0.177553 -0.28299,0.250804 -0.0389,0.02735 -0.16063,0.10185 -0.11926,0.07837 0.70864,-0.402267 1.41422,-0.809904 2.12133,-1.214855 -0.34712,0.202939 -0.72536,0.401739 -1.13796,0.396385 -0.0564,-0.0026 -0.0877,-0.0095 -0.13993,0.0043 -0.0121,0.0032 -0.0219,0.01397 -0.0343,0.01532 -0.0353,0.0038 -0.0729,-0.02769 -0.10543,-0.03509 -0.98389,-0.192399 -2.31064,0.638861 -2.49657,1.633716 -0.025,0.250284 -0.0134,0.501543 0.072,0.740781 0.11695,0.28484 0.19896,0.363549 0.49686,0.439744 0.0896,0.01814 0.18994,0.04054 0.28054,0.04985 0.2587,0.02661 0.52154,0.01077 0.77985,-0.0092 1.12542,-0.120368 0.20747,0.0044 2.64566,-1.40207 0.17096,-0.09862 0.32148,-0.316502 0.41748,-0.483949 0.12168,-0.284847 0.21267,-0.593492 0.15018,-0.904824 -0.0128,-0.04285 -0.0213,-0.08721 -0.0384,-0.128543 -0.0666,-0.161408 -0.21566,-0.260611 -0.3616,-0.34223 -0.25711,-0.126525 -0.53059,-0.210095 -0.81219,-0.263402 -1.28735,-0.201392 -2.11957,0.575868 -3.25942,1.4487 -0.10593,0.09567 -0.19441,0.197053 -0.2908,0.301376 -0.0628,0.06797 -0.0493,0.05227 -0.13222,0.08502 0.77956,-0.435786 1.55911,-0.871571 2.33866,-1.307356 -0.0104,0.01131 -0.0174,0.02725 -0.0313,0.03389 -0.0753,0.03603 -0.30055,-7.69e-4 -0.38755,0.0088 -0.18936,-0.01269 -0.37057,-0.04255 -0.53638,-0.142655 -0.2336,-0.114323 -0.46594,-0.231161 -0.69942,-0.345734 -0.31267,-0.131586 -0.62749,-0.267875 -0.88739,-0.491622 -0.17749,-0.16436 -0.34448,-0.3286 -0.4914,-0.521699 -0.0386,-0.05074 -0.076,-0.10251 -0.11016,-0.156357 -0.0268,-0.0423 -0.0281,-0.155037 -0.0724,-0.131661 -0.81564,0.430377 -1.58213,0.948077 -2.3732,1.422113 0.14981,0.101885 0.28105,0.227766 0.41507,0.349305 0.26411,0.239513 0.52928,0.478619 0.77524,0.737073 0.18715,0.223284 0.51215,0.543225 0.46275,0.87169 -0.0149,0.09873 -0.072,0.188082 -0.11746,0.273623 -0.031,0.04274 -0.0592,0.0877 -0.093,0.128227 -0.19505,0.233503 -0.45961,0.395779 -0.69453,0.58413 -0.0898,0.07645 -0.16256,0.142731 -0.22524,0.242357 -0.0113,0.01795 -0.0207,0.03697 -0.0317,0.05513 -0.007,0.01135 -0.0331,0.04011 -0.0216,0.03339 0.78708,-0.46289 1.56811,-0.935998 2.35216,-1.403996 0.0353,0.0933 -0.0854,0.04929 -0.15208,0.06211 -0.25432,0.0093 -0.50899,0.01217 -0.76341,0.0052 -1.09928,-0.01321 -2.58729,0.05395 -2.97509,1.485619 5.5e-4,0.124129 0.0312,0.232879 0.0893,0.342479 0.0607,0.11957 0.14579,0.22048 0.2397,0.31574 0.0136,0.0144 0.15032,0.16934 0.15451,0.16731 1.45598,-0.70533 2.89515,-0.49323 2.38288,-1.49167 -0.34012,-0.590072 -0.64462,-1.199482 -0.91215,-1.82612 -0.3311,-0.753428 -0.65099,-1.644442 -1.23117,-2.248469 -0.0864,-0.08999 -0.19054,-0.161147 -0.28581,-0.241721 -0.22305,-0.17198 -0.28274,-0.215144 -0.4921,-0.386712 -0.0584,-0.04783 -0.10389,-0.17512 -0.17336,-0.145631 -1.83383,0.778395 -2.563836,0.410856 -2.486513,1.537563 0.06195,0.409727 0.158504,0.818185 0.15041,1.235039 -0.03058,0.138528 -0.120109,0.258944 -0.205632,0.370919 -0.614902,0.664457 -1.538854,0.930263 1.696793,-0.852048 0.107372,-0.05915 -0.203099,0.137885 -0.310138,0.19763 -0.369939,0.206487 -0.47567,0.226392 -0.888171,0.379893 -0.192424,0.05406 -0.382633,0.11675 -0.577277,0.162184 -0.775328,0.180969 -1.614453,0.290254 -2.389867,0.05714 -0.02023,-0.03236 -0.0559,-0.05922 -0.06069,-0.09707 -0.0068,-0.05372 0.0094,-0.109193 0.02816,-0.159986 0.303319,-0.821113 2.568395,-1.72264 -1.426888,0.475393 0.08811,-0.04606 0.171642,-0.102245 0.264342,-0.138202 0.283264,-0.109879 0.632916,-0.112856 0.908774,0.01652 0,0 2.249849,-1.613505 2.249849,-1.613505 z" />
  </g>
</svg>
